<?xml version="1.0" standalone="no"?>
<!DOCTYPE svg PUBLIC "-//W3C//DTD SVG 20010904//EN"
 "http://www.w3.org/TR/2001/REC-SVG-20010904/DTD/svg10.dtd">
<svg version="1.0" xmlns="http://www.w3.org/2000/svg"
 width="612.000000pt" height="612.000000pt" viewBox="0 0 612.000000 612.000000"
 preserveAspectRatio="xMidYMid meet">
<metadata>
Created by potrace 1.11, written by Peter Selinger 2001-2013
</metadata>
<g transform="translate(0.000000,612.000000) scale(0.100000,-0.100000)"
fill="#000000" stroke="none">
<path d="M2988 5715 c-2 -1 -52 -5 -113 -9 -60 -3 -121 -8 -135 -10 -14 -3
-47 -7 -75 -11 -149 -18 -395 -83 -560 -148 -477 -186 -870 -486 -1187 -910
-38 -49 -68 -93 -68 -98 0 -4 -6 -14 -13 -21 -36 -37 -159 -265 -220 -408 -48
-113 -124 -341 -133 -400 -3 -19 -8 -38 -10 -42 -5 -8 -32 -152 -40 -213 -3
-22 -7 -50 -9 -62 -23 -106 -23 -519 0 -643 2 -14 6 -45 9 -70 3 -25 8 -56 11
-70 3 -14 8 -38 11 -55 3 -16 10 -50 15 -75 6 -25 13 -56 15 -70 11 -53 89
-280 131 -380 135 -318 314 -581 568 -836 340 -341 765 -583 1230 -700 17 -4
32 -8 35 -9 3 0 21 -4 40 -8 19 -4 46 -9 60 -12 114 -23 199 -34 350 -44 149
-10 402 -2 485 14 11 2 43 7 70 10 41 5 188 34 255 50 127 31 336 105 469 167
108 50 298 157 329 185 7 7 17 13 21 13 9 0 154 107 237 175 83 68 285 275
365 375 156 195 303 446 393 670 21 52 39 100 41 105 1 6 5 17 8 25 31 76 98
352 111 460 4 25 8 56 11 70 7 34 19 240 19 320 0 89 -13 314 -18 331 -3 8 -7
34 -10 59 -3 25 -10 70 -16 100 -6 30 -13 71 -16 90 -3 19 -8 38 -10 41 -2 3
-5 19 -8 35 -20 114 -140 428 -221 579 -92 172 -167 288 -282 432 -271 342
-606 596 -1044 791 -114 51 -344 122 -494 152 -33 7 -64 13 -70 15 -41 8 -142
21 -245 30 -67 6 -288 14 -292 10z m997 -1405 c39 -12 83 -30 100 -39 49 -27
135 -91 135 -101 0 -5 -154 -86 -342 -181 l-342 -171 -491 0 c-277 0 -507 -4
-528 -10 -45 -11 -111 -68 -125 -106 -5 -15 -9 -121 -10 -237 0 -115 -1 -219
-2 -230 0 -12 -14 -26 -33 -36 -18 -8 -134 -68 -258 -132 l-227 -117 1 427 c0
476 3 506 63 630 41 87 148 203 227 246 66 36 152 66 212 75 28 4 388 7 800 6
748 -1 750 -1 820 -24z m424 -1017 c-1 -519 -4 -559 -55 -674 -83 -184 -253
-310 -469 -348 -3 -1 -341 -1 -752 -1 l-748 0 0 -273 -1 -273 -27 -47 c-47
-80 -74 -88 -301 -91 l-193 -2 0 436 c0 389 2 438 16 447 24 15 149 81 326
173 88 45 201 104 250 130 l90 48 590 -1 c325 0 602 4 615 8 47 14 99 57 119
99 18 38 20 63 19 316 0 151 4 276 9 278 4 2 118 59 253 127 135 68 248 124
252 124 4 1 7 -214 7 -476z"/>
</g>
</svg>
